<svg width="24" height="24" viewBox="0 0 24 24" fill="none" xmlns="http://www.w3.org/2000/svg">
<path d="M23.4985 6.20286C23.2225 5.16356 22.4092 4.34503 21.3766 4.06726C19.505 3.5625 12 3.5625 12 3.5625C12 3.5625 4.49503 3.5625 2.62336 4.06726C1.59077 4.34508 0.777523 5.16356 0.501503 6.20286C0 8.08666 0 12.017 0 12.017C0 12.017 0 15.9474 0.501503 17.8312C0.777523 18.8705 1.59077 19.6549 2.62336 19.9327C4.49503 20.4375 12 20.4375 12 20.4375C12 20.4375 19.505 20.4375 21.3766 19.9327C22.4092 19.6549 23.2225 18.8705 23.4985 17.8312C24 15.9474 24 12.017 24 12.017C24 12.017 24 8.08666 23.4985 6.20286ZM9.54544 15.5855V8.44855L15.8181 12.0171L9.54544 15.5855Z" fill="currentColor"></path>
</svg>